<svg xmlns="http://www.w3.org/2000/svg" width="20.766" height="18.455" viewBox="0 0 20.766 18.455">
  <path id="Icon_awesome-edit" data-name="Icon awesome-edit" d="M14.515,3l3.252,3.252a.353.353,0,0,1,0,.5L9.893,14.626,6.547,15a.7.7,0,0,1-.775-.775l.371-3.346L14.017,3A.353.353,0,0,1,14.515,3Zm5.84-.826L18.6.418a1.41,1.41,0,0,0-1.99,0L15.329,1.694a.353.353,0,0,0,0,.5l3.252,3.252a.353.353,0,0,0,.5,0l1.276-1.276a1.41,1.41,0,0,0,0-1.99ZM13.844,12.485v3.67H2.307V4.618h8.285a.443.443,0,0,0,.306-.126L12.341,3.05a.433.433,0,0,0-.306-.739H1.731A1.731,1.731,0,0,0,0,4.041v12.69a1.731,1.731,0,0,0,1.731,1.731h12.69a1.731,1.731,0,0,0,1.731-1.731V11.043a.433.433,0,0,0-.739-.306L13.97,12.178A.443.443,0,0,0,13.844,12.485Z" transform="translate(0 -0.007)" fill="#3d5a68"/>
</svg>
