<svg xmlns="http://www.w3.org/2000/svg" width="40.04" height="41.442" viewBox="0 0 40.04 41.442">
  <g id="Emplacement" transform="translate(0.547 0.546)">
    <path id="Emplacement-2" data-name="Emplacement" d="M-442.668-196.944c-.988-.922-1.947-1.883-2.845-2.895a1.213,1.213,0,0,1,.179-1.762q1.167-1.209,2.358-2.394a1.3,1.3,0,0,1,1.923-.21,1.336,1.336,0,0,1,.025,1.957c-.059.079-.16.133-.1.3h24.414c.1-.268-.2-.35-.313-.528a1.339,1.339,0,0,1,.194-1.718,1.145,1.145,0,0,1,1.625-.068c.991.92,1.941,1.889,2.854,2.888a1.246,1.246,0,0,1-.179,1.766q-1.187,1.244-2.412,2.449a1.282,1.282,0,0,1-1.867.174,1.345,1.345,0,0,1-.031-1.955l.234-.308h-24.551c-.08.26.22.344.328.529a1.322,1.322,0,0,1-.208,1.714,1.358,1.358,0,0,1-.877.373A1.079,1.079,0,0,1-442.668-196.944Zm-5.406-8.065c-.8-.783-1.583-1.586-2.362-2.391a1.345,1.345,0,0,1-.2-1.949c.507-.578,1.188-.584,1.93-.018.058.044.119.083.256.179v-23.137a4.421,4.421,0,0,1-.624.448,1.214,1.214,0,0,1-1.553-.28,1.177,1.177,0,0,1-.062-1.648,40.6,40.6,0,0,1,2.855-2.887,1.179,1.179,0,0,1,1.739.18q1.192,1.183,2.362,2.391a1.347,1.347,0,0,1,.22,1.955,1.339,1.339,0,0,1-1.992-.02c-.057-.046-.119-.086-.239-.171v23.135c.259.047.339-.246.529-.352a1.276,1.276,0,0,1,1.639.167,1.2,1.2,0,0,1,.1,1.706c-.893.983-1.824,1.934-2.792,2.841a1.14,1.14,0,0,1-.786.344A1.488,1.488,0,0,1-448.074-205.008Zm17.653-2.175h-.664v-5.633c0-.262.009-.525,0-.787a1.37,1.37,0,0,0-1.31-1.46,1.347,1.347,0,0,0-1.294,1.468c-.014,1.863,0,3.726,0,5.588v.815c-1.95,0-3.833.022-5.714-.012a1.153,1.153,0,0,1-1.162-1.146,6.574,6.574,0,0,1-.025-.786q0-12.948,0-25.9c0-1.592.341-1.935,1.91-1.936h4.883c.2.275.1.572.1.846q.011,7.793.005,15.585c0,.21-.01.42,0,.63a1.343,1.343,0,0,0,1.257,1.346A1.318,1.318,0,0,0-431.1-219.9c.036-1.022.011-2.046.012-3.07,0-.259,0-.517,0-.85,1.915,0,3.773,0,5.63,0h.2a6.168,6.168,0,0,0,.732-.023,1.291,1.291,0,0,0,1.209-1.295,1.27,1.27,0,0,0-1.292-1.287c-1.388-.017-2.775-.014-4.163-.012h-2.254v-10.466a.666.666,0,0,1,.47-.069c.06.005.121.011.18.011q8.267-.007,16.534,0c1.352,0,1.745.4,1.745,1.78,0,2.884,0,5.768,0,8.748h-3.425c-.906,0-1.811,0-2.717,0-1.02.005-1.607.468-1.627,1.273-.02.827.591,1.335,1.649,1.339,1.257.006,2.514,0,3.772,0h2.228a.961.961,0,0,1,.117.669q.005,7.123,0,14.247c0,1.329-.392,1.723-1.713,1.724h-16.611Z" transform="translate(451 237)"  stroke-miterlimit="10" stroke-width="1"/>
  </g>
</svg>
