<svg id="Iventaire" xmlns="http://www.w3.org/2000/svg" width="39.746" height="46.992" viewBox="0 0 39.746 46.992">
  <path id="Icon" d="M20.6,46.992V31.026h6.25v5.08a53.332,53.332,0,0,0,6.63-.031V31.05h6.261V46.992ZM0,46.987V31.043H6.251v4.988h6.621V31.054h6.244V46.992ZM7.65,31.019H11.5v3.822H7.65Zm20.571,3.8a23.3,23.3,0,0,1-.056-3.81h3.968v3.81ZM9.577,29.107V3.735h4.2V6.256H25.9c.351-.821.058-1.635.239-2.484h4.182V29.1Zm2.848-3.457A2.07,2.07,0,0,0,13.9,27a12.415,12.415,0,0,0,2.176-2.066.791.791,0,0,0-.8-.78c-.028,0-.057,0-.085.006-.4.347-.839.733-1.31,1.146a5.043,5.043,0,0,0-.849-.211c-.243,0-.46.124-.605.558Zm5.757.867h8.893a.716.716,0,0,0,.159-1,.673.673,0,0,0-.059-.071H18.037a.712.712,0,0,0,.059,1.005.66.66,0,0,0,.085.065ZM12.4,20.554a2.76,2.76,0,0,0,1.5,1.311,8.249,8.249,0,0,0,2.225-2.375c-1.217-1.131-1.553.386-2.344.624a2.279,2.279,0,0,0-.734-.223c-.253,0-.488.148-.647.662Zm5.651.73h9.176c.225-.5.212-.835-.214-1.07H18.165a.715.715,0,0,0-.172,1,.794.794,0,0,0,.058.072Zm-5.613-6.133c.087.791.644,1.177,1.419,1.528a9.8,9.8,0,0,0,2.207-2.118.769.769,0,0,0-.785-.751.811.811,0,0,0-.085.007L13.84,14.995a2.234,2.234,0,0,0-.744-.233.816.816,0,0,0-.658.387Zm5.747,1.027h8.888a.724.724,0,0,0,.162-1.01.712.712,0,0,0-.049-.06H18.034a.718.718,0,0,0,.076,1.012.654.654,0,0,0,.074.056Zm-5.779-5.865c.4.412.706,1.011,1.5,1.178a8.529,8.529,0,0,0,2.2-2.237.817.817,0,0,0-1.038-.507l-.019.007-1.18,1.04a3.918,3.918,0,0,0-.838-.226c-.272-.006-.509.157-.631.744Zm5.644.632h9.171c.241-.5.209-.836-.257-1.106H18.251a.691.691,0,0,0-.2,1.1Zm-2.933-5.9V2.226l.053-.055q.024-.023.048-.042a.738.738,0,0,1,.46-.171h.056a2.778,2.778,0,0,1,.472.065l.039.007h.018c.064.341.128.685.211,1.132l.008.044h6.71c.477-.305.163-.838.458-1.163a1.49,1.49,0,0,1,.931-.026l.068.013.042.008v3Zm2.626-3.034V0h4.379c.027.362.078.721.078,1.077a2.358,2.358,0,0,1-.171.935Z" />
</svg>
