<svg xmlns="http://www.w3.org/2000/svg" width="45.471" height="43.674" viewBox="0 0 45.471 43.674">
  <g id="Products" transform="translate(1.569 0.5)">
    <path id="Union_1" data-name="Union 1" d="M-457.7-257.521v-12.893l8.694-2.9v.992q0,2.635,0,5.27t0,5.27c0,1.185-.171,1.408-1.309,1.787Zm-22.414,0V-270.41l8.643-2.884V-260.4Zm11.228-2.888V-273.3l8.644,2.88v12.893Zm-17.351,1.7c-1.336-.441-2.667-.892-4-1.329a1.318,1.318,0,0,1-1.087-1.288c0-1.976,0-3.951,0-5.943s0-4,0-6.038l8.684,2.893v12.881C-483.863-257.936-485.052-258.323-486.239-258.715Zm17.326-17.228,9.95-3.323,9.952,3.32-9.948,3.326Zm-22.411,0,9.949-3.326,9.954,3.322-9.95,3.324Zm22.448-2.181v-13.121l8.631-2.874v13.124Zm-11.218-2.872v-13.122l8.636,2.87v13.122Zm9.9-12.5h-.016a.792.792,0,0,1-.185-.025l-.038-.011-.016-.005-9.681-3.228c3.3-1.1,6.388-2.121,9.471-3.153l.063-.02a1.507,1.507,0,0,1,.431-.065,1.486,1.486,0,0,1,.475.08c3.085,1.031,6.172,2.055,9.3,3.1a.948.948,0,0,1-.55.308q-4.316,1.432-8.629,2.874l-.046.016c-.082.028-.164.057-.246.08l-.058.016a1.3,1.3,0,0,1-.156.031.94.94,0,0,1-.119.008Z" transform="translate(491.334 300)"   stroke-miterlimit="10" stroke-width="1"/>
  </g>
</svg>
