<svg xmlns="http://www.w3.org/2000/svg" width="41.308" height="55.914" viewBox="0 0 41.308 55.914">
  <g id="Stocke_Stat" transform="translate(0.5 0.5)">
    <path id="Icon" d="M-493.438-436.235v-10.782h3.531v3.533h5.44v-3.506h3.593v10.756Zm27.619-.023V-447.04h3.53v3.532h5.44v-3.506h3.594v10.756Zm-13.811,0v-10.782h3.53v3.533h5.44v-3.506h3.593v10.756Zm-8.4-10.69a4.818,4.818,0,0,1,1.732-.073v1.675a1.652,1.652,0,0,1-.892.124,2.745,2.745,0,0,0-.84.059Zm27.619-.023a4.814,4.814,0,0,1,1.731-.073v1.675a1.648,1.648,0,0,1-.891.124,2.745,2.745,0,0,0-.84.059Zm-13.811,0a4.814,4.814,0,0,1,1.731-.073v1.675a1.65,1.65,0,0,1-.892.124,2.74,2.74,0,0,0-.839.059Zm8.4-1.757V-459.51h3.531v3.532h5.44v-3.506h3.593v10.756Zm-13.811,0V-459.51h3.53v3.532h5.44v-3.506h3.593v10.756Zm19.224-10.714a4.834,4.834,0,0,1,1.731-.073v1.676a1.653,1.653,0,0,1-.89.123,2.751,2.751,0,0,0-.841.059Zm-13.811,0a4.834,4.834,0,0,1,1.731-.073v1.676a1.656,1.656,0,0,1-.891.123,2.745,2.745,0,0,0-.84.059Zm8.4-1.677V-471.9h3.531v3.532h5.44v-3.506h3.593v10.756Zm-27.619-9.6,11.248-11.428,8.285,8.6,14.261-13.655-4.1-3.938h10.615v10.385l-3.719-3.848-17.166,16.431-8.2-8.512-11.22,11.4Zm33.032-1.11a4.814,4.814,0,0,1,1.731-.073v1.675a1.648,1.648,0,0,1-.891.124,2.743,2.743,0,0,0-.84.059Z" transform="translate(493.438 491.15)"  stroke-miterlimit="10" stroke-width="1"/>
  </g>
</svg>
