<svg xmlns="http://www.w3.org/2000/svg" width="15.481" height="15.916" viewBox="0 0 15.481 15.916">
  <path id="Settings" d="M17.061,11.738a5.487,5.487,0,0,0,0-1.56L18.74,8.865a.4.4,0,0,0,.1-.509L17.244,5.6a.4.4,0,0,0-.485-.175l-1.982.8a5.814,5.814,0,0,0-1.345-.78l-.3-2.109A.388.388,0,0,0,12.74,3H9.557a.388.388,0,0,0-.39.334l-.3,2.109a6.114,6.114,0,0,0-1.345.78l-1.982-.8a.388.388,0,0,0-.485.175L3.461,8.356a.392.392,0,0,0,.1.509l1.679,1.313a6.311,6.311,0,0,0-.056.78,6.311,6.311,0,0,0,.056.78L3.557,13.051a.4.4,0,0,0-.1.509l1.592,2.753a.4.4,0,0,0,.485.175l1.982-.8a5.814,5.814,0,0,0,1.345.78l.3,2.109a.388.388,0,0,0,.39.334H12.74a.388.388,0,0,0,.39-.334l.3-2.109a6.114,6.114,0,0,0,1.345-.78l1.982.8a.388.388,0,0,0,.485-.175l1.592-2.753a.4.4,0,0,0-.1-.509l-1.679-1.313Zm-5.913,2.005a2.785,2.785,0,1,1,2.785-2.785A2.788,2.788,0,0,1,11.148,13.743Z" transform="translate(-3.406 -3)" fill="#fff"/>
</svg>
