<svg xmlns="http://www.w3.org/2000/svg" width="16.262" height="15.958" viewBox="0 0 16.262 15.958">
  <path id="Logout" d="M5.044,14.936A7.88,7.88,0,0,1,.63,10.711,7.76,7.76,0,0,1,2.211,2.219a8.034,8.034,0,0,1,.844-.752.843.843,0,0,1,1.176.147.826.826,0,0,1-.148,1.166,6.134,6.134,0,0,0-.513,9.289,6.249,6.249,0,0,0,8.772-.152,6.119,6.119,0,0,0-.153-8.7c-.139-.133-.286-.261-.436-.381a.826.826,0,0,1-.13-1.168A.844.844,0,0,1,12.8,1.544c.19.151.375.313.552.482a7.763,7.763,0,0,1,.194,11.047,7.886,7.886,0,0,1-5.531,2.384H7.875A7.91,7.91,0,0,1,5.044,14.936Zm2.09-7.8V.838a.838.838,0,0,1,1.677,0v6.3a.838.838,0,1,1-1.677,0Z" transform="translate(0.25 0.25)" fill="#fff" stroke="#fff" stroke-width="0.5"/>
</svg>
