<svg xmlns="http://www.w3.org/2000/svg" width="31.256" height="21.877" viewBox="0 0 31.256 21.877">
  <path id="Icon_awesome-users-cog" data-name="Icon awesome-users-cog" d="M29.819,17.359a5.73,5.73,0,0,0,0-2.081l1.26-.728a.354.354,0,0,0,.161-.415,7.33,7.33,0,0,0-1.622-2.8.356.356,0,0,0-.44-.068l-1.26.728a5.734,5.734,0,0,0-1.8-1.04V9.5a.356.356,0,0,0-.278-.347,7.369,7.369,0,0,0-3.233,0,.356.356,0,0,0-.278.347v1.456a5.734,5.734,0,0,0-1.8,1.04l-1.26-.728a.357.357,0,0,0-.44.068,7.33,7.33,0,0,0-1.622,2.8.36.36,0,0,0,.161.415l1.26.728a5.73,5.73,0,0,0,0,2.081l-1.26.728a.354.354,0,0,0-.161.415,7.366,7.366,0,0,0,1.622,2.8.356.356,0,0,0,.44.068l1.26-.728a5.734,5.734,0,0,0,1.8,1.04v1.456a.356.356,0,0,0,.278.347,7.369,7.369,0,0,0,3.233,0,.356.356,0,0,0,.278-.347V21.687a5.734,5.734,0,0,0,1.8-1.04l1.26.728a.357.357,0,0,0,.44-.068,7.33,7.33,0,0,0,1.622-2.8.36.36,0,0,0-.161-.415Zm-5.593,1.329a2.369,2.369,0,1,1,2.369-2.369A2.371,2.371,0,0,1,24.226,18.688ZM4.689,11.63A3.126,3.126,0,1,0,1.563,8.5,3.129,3.129,0,0,0,4.689,11.63ZM15.63,13.193c.093,0,.181-.024.274-.029a9,9,0,0,1,1.773-2.891,1.925,1.925,0,0,1,1.412-.615,1.877,1.877,0,0,1,.957.259l.386.225c.039-.024.078-.044.117-.068A5.406,5.406,0,0,0,21.1,7.727a5.468,5.468,0,1,0-5.466,5.466Zm5.138,9.5c-.112-.059-.225-.127-.332-.19a2.413,2.413,0,0,1-1.343.479,1.941,1.941,0,0,1-1.412-.615,8.906,8.906,0,0,1-1.963-3.4,2.084,2.084,0,0,1,1.26-2.457q-.007-.19,0-.381l-.386-.225a1.99,1.99,0,0,1-.479-.4c-.161.01-.317.029-.479.029a7.71,7.71,0,0,1-3.346-.781h-.405a5.629,5.629,0,0,0-5.632,5.627v1.407A2.345,2.345,0,0,0,8.6,24.134H21.071a1.881,1.881,0,0,1-.3-.992v-.449ZM8.455,14.1a3.117,3.117,0,0,0-2.2-.908H3.126A3.129,3.129,0,0,0,0,16.319v1.563a1.561,1.561,0,0,0,1.563,1.563H4.782A7.162,7.162,0,0,1,8.455,14.1Z" transform="translate(0 -2.257)" fill="#fff"/>
</svg>
